<svg width="96" height="71" viewBox="0 0 96 71" fill="none" xmlns="http://www.w3.org/2000/svg">
<path d="M52.4826 9.8562C55.7035 8.43755 57.5307 9.19284 58.7701 12.347C59.287 13.6626 59.5604 15.048 59.7364 16.4383C60.0032 18.5448 58.8908 20.0653 56.78 20.6943C55.9851 20.9311 55.1657 21.1313 54.4236 21.4892C53.6376 21.8682 53.0076 22.5734 53.195 23.4968C53.4015 24.5143 53.9983 25.4276 55.1464 25.5435C57.9568 25.8273 60.7719 26.0925 63.5915 26.2428C65.2273 26.3299 65.7682 25.5749 65.5151 23.9232C65.4218 23.3145 65.2744 22.7119 65.2186 22.1002C65.0844 20.6258 65.5806 19.4152 66.8825 18.6793C68.2198 17.9233 69.6043 17.7553 70.9769 18.6492C77.6092 22.9686 84.2516 27.272 90.8691 31.6145C92.6573 32.7879 93.3915 34.8081 92.8804 36.7362C92.352 38.7292 91.1777 39.8023 89.1694 39.6482C85.5276 39.3687 81.8964 38.9253 78.2692 38.4803C76.3489 38.2447 75.584 39.0091 75.9234 40.9525C76.0483 41.6672 76.1194 42.4052 76.0999 43.1294C76.0537 44.8475 75.2218 45.9006 73.531 46.1124C71.1673 46.4085 68.7853 46.5738 66.4068 46.7252C60.4889 47.102 54.5685 47.4386 48.6492 47.7928C46.483 47.9225 45.9177 48.6912 46.3866 50.8129C46.5437 51.524 46.7109 52.245 46.7512 52.9685C46.9841 57.1441 44.6456 59.6196 40.4372 59.6287C33.2175 59.6442 25.9978 59.6267 18.7782 59.6235C15.8903 59.6222 13.0024 59.614 10.1145 59.6237C7.79529 59.6315 5.96845 58.6415 4.91967 56.5832C3.81469 54.4146 3.82728 52.12 5.06039 49.9564C5.90932 48.4668 7.35337 47.6068 8.94736 47.7397C13.3562 48.107 17.0363 46.159 20.7666 44.2984C26.1458 41.6155 31.5193 38.9202 36.8754 36.1903C39.5523 34.826 39.678 33.319 37.3198 31.3555C36.3324 30.5333 35.2802 29.7869 34.5085 28.7346C32.8142 26.4244 33.0325 24.3166 35.2944 22.578C39.4091 19.4154 43.575 16.321 47.7364 13.2214C49.2576 12.0883 50.8267 11.0212 52.4826 9.8562ZM68.2089 20.0923C66.5182 20.8878 67.0255 22.2672 67.3003 23.5908C67.8566 26.2701 66.4353 28.2207 63.8379 28.0995C60.961 27.9653 58.0843 27.7021 55.2247 27.3511C52.9385 27.0706 51.4771 25.4845 51.3206 23.4275C51.1849 21.6434 52.4808 19.8075 54.6735 19.3651C58.8421 18.524 58.0801 16.9458 57.4029 14.0512C57.2883 13.5614 57.0983 13.0841 56.8964 12.622C56.1007 10.8012 54.9785 10.4236 53.329 11.5511C47.5237 15.5194 41.9714 19.8438 36.3628 24.0871C34.8876 25.2031 34.8631 26.1921 35.9861 27.6794C36.8088 28.769 37.9671 29.4793 38.956 30.3811C41.7045 32.8875 41.3407 35.8238 38.1062 37.5844C32.1355 40.8343 25.9963 43.7383 19.9248 46.782C16.6103 48.4436 13.3107 49.8559 9.45884 49.5492C7.48382 49.392 6.18859 50.9076 6.0231 52.9306C5.78643 55.8239 7.5385 57.7262 10.4612 57.7514C18.9022 57.8242 27.344 57.5884 35.7861 57.9147C37.7015 57.9887 39.6489 58.2177 41.5901 57.7507C43.6249 57.2611 44.8746 55.8706 44.9529 53.7536C44.9974 52.5472 44.5996 51.423 44.4414 50.256C44.1224 47.903 45.2392 46.5361 47.5227 46.178C49.3474 45.8918 51.1774 45.9525 53.0028 45.8248C59.1416 45.3952 65.2773 44.9134 71.4199 44.5503C74.2452 44.3833 74.773 43.8045 74.0956 41.0264C73.462 38.4276 75.1715 36.4172 77.802 36.685C81.3288 37.044 84.8556 37.4043 88.3794 37.7912C89.5929 37.9245 90.6236 37.7716 91.0511 36.4089C91.482 35.0355 90.9989 33.9016 89.888 33.1712C83.2715 28.8211 76.6221 24.5225 69.9867 20.2021C69.4909 19.8792 68.9963 19.6909 68.2089 20.0923Z" fill="white" stroke="white" stroke-width="1.2"/>
</svg>
